bw_sq_140_02
version=1
nRows=18
nColumns=46
inDegrees=yes
endheader
time	ground_force3_vx	ground_force3_vy	ground_force3_vz	ground_force3_px	ground_force3_py	ground_force3_pz	ground_torque3_x	ground_torque3_y	ground_torque3_z	ground_force5_vx	ground_force5_vy	ground_force5_vz	ground_force5_px	ground_force5_py	ground_force5_pz	ground_torque5_x	ground_torque5_y	ground_torque5_z	ground_force4_vx	ground_force4_vy	ground_force4_vz	ground_force4_px	ground_force4_py	ground_force4_pz	ground_torque4_x	ground_torque4_y	ground_torque4_z	ground_force1_vx	ground_force1_vy	ground_force1_vz	ground_force1_px	ground_force1_py	ground_force1_pz	ground_torque1_x	ground_torque1_y	ground_torque1_z	ground_force2_vx	ground_force2_vy	ground_force2_vz	ground_force2_px	ground_force2_py	ground_force2_pz	ground_torque2_x	ground_torque2_y	ground_torque2_z
2.636000	-0.000000	-0.000000	0.000000	0.200000	0.000000	-0.300000	0.000000	0.000000	-0.000000	4.270729	260.889954	80.942917	0.169818	0.000000	-1.602607	0.000028	2.861425	0.000004	3.314993	216.272095	-64.488342	0.155128	0.000000	-0.819310	0.000018	-0.612519	0.000000	-0.000000	-0.000000	0.000000	0.200000	0.000000	0.904000	0.000000	0.000000	-0.000000	-0.000000	-0.000000	0.000000	0.400000	0.000000	0.302000	0.000000	0.000000	-0.000000	
2.637000	-0.000000	-0.000000	0.000000	0.200000	0.000000	-0.300000	0.000000	0.000000	-0.000000	3.627916	261.844604	81.103447	0.168807	0.000000	-1.601899	0.000016	2.866472	0.000001	3.316537	218.197845	-66.096748	0.155579	0.000000	-0.818665	0.000009	-0.511219	0.000000	-0.000000	-0.000000	0.000000	0.200000	0.000000	0.904000	0.000000	0.000000	-0.000000	-0.000000	-0.000000	0.000000	0.400000	0.000000	0.302000	0.000000	0.000000	-0.000000	
2.638000	-0.000000	-0.000000	0.000000	0.200000	0.000000	-0.300000	0.000000	0.000000	-0.000000	2.662168	261.206512	81.264320	0.169185	0.000000	-1.603115	0.000021	2.951683	0.000003	3.318082	216.594330	-65.453590	0.155413	0.000000	-0.818764	0.000010	-0.467375	0.000004	-0.000000	-0.000000	0.000000	0.200000	0.000000	0.904000	0.000000	0.000000	-0.000000	-0.000000	-0.000000	0.000000	0.400000	0.000000	0.302000	0.000000	0.000000	-0.000000	
2.639000	-0.000000	-0.000000	0.000000	0.200000	0.000000	-0.300000	0.000000	0.000000	-0.000000	3.145297	258.978271	82.228210	0.169477	0.000000	-1.604082	0.000010	2.835637	0.000003	3.638623	218.200195	-65.936218	0.155304	0.000000	-0.818648	0.000003	-0.579014	0.000003	-0.000000	-0.000000	0.000000	0.200000	0.000000	0.904000	0.000000	0.000000	-0.000000	-0.000000	-0.000000	0.000000	0.400000	0.000000	0.302000	0.000000	0.000000	-0.000000	
2.640000	-0.000000	-0.000000	0.000000	0.200000	0.000000	-0.300000	0.000000	0.000000	-0.000000	3.627407	260.576050	82.549271	0.170200	0.000000	-1.604647	0.000012	2.793301	0.000005	4.611056	217.880981	-66.901459	0.155250	0.000000	-0.819022	0.000010	-0.442474	0.000002	-0.000000	-0.000000	0.000000	0.200000	0.000000	0.904000	0.000000	0.000000	-0.000000	-0.000000	-0.000000	0.000000	0.400000	0.000000	0.302000	0.000000	0.000000	-0.000000	
2.641000	-0.000000	-0.000000	0.000000	0.200000	0.000000	-0.300000	0.000000	0.000000	-0.000000	3.949323	260.254150	81.906120	0.170416	0.000000	-1.605649	0.000020	2.681353	0.000001	3.641711	220.763031	-66.900444	0.155483	0.000000	-0.818713	0.000009	-0.403716	0.000002	-0.000000	-0.000000	0.000000	0.200000	0.000000	0.904000	0.000000	0.000000	-0.000000	-0.000000	-0.000000	0.000000	0.400000	0.000000	0.302000	0.000000	0.000000	-0.000000	
2.642000	-0.000000	-0.000000	0.000000	0.200000	0.000000	-0.300000	0.000000	0.000000	-0.000000	3.306000	261.531036	81.745247	0.169316	0.000000	-1.605091	0.000003	2.750317	0.000002	3.801210	222.049683	-67.061996	0.154839	0.000000	-0.817606	0.000019	-0.552948	0.000005	-0.000000	-0.000000	0.000000	0.200000	0.000000	0.904000	0.000000	0.000000	-0.000000	-0.000000	-0.000000	0.000000	0.400000	0.000000	0.302000	0.000000	0.000000	-0.000000	
2.643000	-0.000000	-0.000000	0.000000	0.200000	0.000000	-0.300000	0.000000	0.000000	-0.000000	3.467213	261.529724	82.710144	0.170910	0.000000	-1.603550	-0.000004	2.682128	0.000000	4.124839	220.126282	-67.544617	0.154816	0.000000	-0.818085	0.000006	-0.531480	0.000002	-0.000000	-0.000000	0.000000	0.200000	0.000000	0.904000	0.000000	0.000000	-0.000000	-0.000000	-0.000000	0.000000	0.400000	0.000000	0.302000	0.000000	0.000000	-0.000000	
2.644000	-0.000000	-0.000000	0.000000	0.200000	0.000000	-0.300000	0.000000	0.000000	-0.000000	2.501974	261.531372	82.548599	0.169632	0.000000	-1.603500	-0.000006	2.718611	-0.000000	4.124839	220.446167	-67.703110	0.154978	0.000000	-0.819078	0.000011	-0.435194	0.000001	-0.000000	-0.000000	0.000000	0.200000	0.000000	0.904000	0.000000	0.000000	-0.000000	-0.000000	-0.000000	0.000000	0.400000	0.000000	0.302000	0.000000	0.000000	-0.000000	
2.645000	-0.000000	-0.000000	0.000000	0.200000	0.000000	-0.300000	0.000000	0.000000	-0.000000	1.695910	263.125153	83.191750	0.169870	0.000000	-1.604461	0.000006	2.996737	0.000006	4.285882	221.727783	-67.383064	0.155808	0.000000	-0.816636	0.000009	-0.450469	0.000000	-0.000000	-0.000000	0.000000	0.200000	0.000000	0.904000	0.000000	0.000000	-0.000000	-0.000000	-0.000000	0.000000	0.400000	0.000000	0.302000	0.000000	0.000000	-0.000000	
2.646000	-0.000000	-0.000000	0.000000	0.200000	0.000000	-0.300000	0.000000	0.000000	-0.000000	2.502483	264.402710	83.351944	0.170101	0.000000	-1.603457	0.000023	2.620373	0.000002	3.962252	223.002319	-67.223549	0.157068	0.000000	-0.815901	0.000004	-0.441614	0.000003	-0.000000	-0.000000	0.000000	0.200000	0.000000	0.904000	0.000000	0.000000	-0.000000	-0.000000	-0.000000	0.000000	0.400000	0.000000	0.302000	0.000000	0.000000	-0.000000	
2.647000	-0.000000	-0.000000	0.000000	0.200000	0.000000	-0.300000	0.000000	0.000000	-0.000000	2.662168	261.213470	83.352615	0.169640	0.000000	-1.606159	0.000026	2.873796	0.000005	3.962252	224.292648	-68.349327	0.155396	0.000000	-0.818983	0.000013	-0.558922	0.000001	-0.000000	-0.000000	0.000000	0.200000	0.000000	0.904000	0.000000	0.000000	-0.000000	-0.000000	-0.000000	0.000000	0.400000	0.000000	0.302000	0.000000	0.000000	-0.000000	
2.648000	-0.000000	-0.000000	0.000000	0.200000	0.000000	-0.300000	0.000000	0.000000	-0.000000	2.180058	265.354034	83.191071	0.170668	0.000000	-1.605314	0.000016	2.641594	0.000006	3.638623	223.969376	-68.994522	0.155877	0.000000	-0.817577	0.000015	-0.615468	0.000005	-0.000000	-0.000000	0.000000	0.200000	0.000000	0.904000	0.000000	0.000000	-0.000000	-0.000000	-0.000000	0.000000	0.400000	0.000000	0.302000	0.000000	0.000000	-0.000000	
2.649000	-0.000000	-0.000000	0.000000	0.200000	0.000000	-0.300000	0.000000	0.000000	-0.000000	1.696419	261.213501	84.798447	0.170006	0.000000	-1.605910	0.000002	2.928377	0.000001	3.477580	223.334991	-69.634628	0.154740	0.000000	-0.816986	0.000005	-0.547826	-0.000001	-0.000000	-0.000000	0.000000	0.200000	0.000000	0.904000	0.000000	0.000000	-0.000000	-0.000000	-0.000000	0.000000	0.400000	0.000000	0.302000	0.000000	0.000000	-0.000000	
2.650000	-0.000000	-0.000000	0.000000	0.200000	0.000000	-0.300000	0.000000	0.000000	-0.000000	1.696929	264.716614	84.637909	0.169993	0.000000	-1.605741	0.000020	2.879799	0.000002	4.445380	224.293304	-69.312538	0.154419	0.000000	-0.819814	0.000019	-0.614197	0.000003	-0.000000	-0.000000	0.000000	0.200000	0.000000	0.904000	0.000000	0.000000	-0.000000	-0.000000	-0.000000	0.000000	0.400000	0.000000	0.302000	0.000000	0.000000	-0.000000	
2.651000	-0.000000	-0.000000	0.000000	0.200000	0.000000	-0.300000	0.000000	0.000000	-0.000000	1.696929	267.590576	84.797768	0.170077	0.000000	-1.603860	-0.000005	2.784218	0.000002	4.282793	223.018448	-68.990448	0.154037	0.000000	-0.816495	0.000009	-0.657412	-0.000001	-0.000000	-0.000000	0.000000	0.200000	0.000000	0.904000	0.000000	0.000000	-0.000000	-0.000000	-0.000000	0.000000	0.400000	0.000000	0.302000	0.000000	0.000000	-0.000000	
2.652000	-0.000000	-0.000000	0.000000	0.200000	0.000000	-0.300000	0.000000	0.000000	-0.000000	1.375522	264.082489	85.119171	0.170174	0.000000	-1.606398	-0.000010	2.750005	0.000005	4.611056	226.537949	-68.990448	0.154966	0.000000	-0.816976	0.000013	-0.373024	0.000004	-0.000000	-0.000000	0.000000	0.200000	0.000000	0.904000	0.000000	0.000000	-0.000000	-0.000000	-0.000000	0.000000	0.400000	0.000000	0.302000	0.000000	0.000000	-0.000000	
2.653000	-0.000000	-0.000000	0.000000	0.200000	0.000000	-0.300000	0.000000	0.000000	-0.000000	1.054115	265.358032	85.440582	0.170420	0.000000	-1.604399	0.000027	2.709305	0.000000	4.121750	226.857178	-69.796181	0.155806	0.000000	-0.816382	0.000016	-0.571695	0.000003	-0.000000	-0.000000	0.000000	0.200000	0.000000	0.904000	0.000000	0.000000	-0.000000	-0.000000	-0.000000	0.000000	0.400000	0.000000	0.302000	0.000000	0.000000	-0.000000	
